 <svg  version="1.0" xmlns="http://www.w3.org/2000/svg"  width="300.000000pt" height="242.000000pt" viewBox="0 0 300.000000 242.000000"  preserveAspectRatio="xMidYMid meet">  <g transform="translate(0.000000,242.000000) scale(0.050000,-0.050000)" fill="#7c12d3" stroke="none"> <path d="M2332 4810 c-21 -16 -46 -24 -55 -18 -10 6 -23 -3 -29 -21 -7 -17 -20 -26 -30 -20 -10 6 -18 3 -18 -8 0 -11 -26 -26 -58 -33 -32 -7 -64 -25 -70 -41 -6 -16 -19 -29 -30 -29 -11 0 -49 -27 -85 -59 -49 -46 -71 -54 -91 -38 -21 18 -24 16 -14 -10 8 -21 -10 -54 -50 -94 -34 -34 -62 -68 -62 -76 0 -7 -20 -36 -45 -63 -25 -28 -66 -91 -93 -140 -26 -50 -57 -99 -70 -110 -12 -11 -25 -38 -29 -60 -4 -22 -15 -43 -25 -47 -10 -3 -13 -15 -7 -25 6 -10 2 -18 -10 -18 -11 0 -20 -7 -19 -15 9 -53 -3 -75 -23 -45 -17 24 -20 20 -18 -20 6 -90 0 -105 -34 -92 -28 11 -29 8 -6 -19 22 -27 22 -35 -2 -50 -16 -10 -21 -19 -11 -19 10 0 2 -18 -18 -40 -20 -22 -28 -40 -18 -41 10 0 2 -13 -18 -28 -20 -15 -38 -35 -39 -44 -4 -32 -94 -90 -117 -76 -12 8 -29 3 -38 -10 -9 -15 -78 -28 -172 -33 -210 -10 -298 -20 -320 -33 -10 -6 -54 -17 -98 -23 -44 -7 -109 -22 -145 -34 -35 -11 -73 -15 -85 -8 -11 7 -20 4 -20 -6 0 -24 -161 -96 -197 -87 -39 8 -62 -34 -63 -112 0 -71 37 -87 80 -35 14 17 46 30 72 30 27 0 48 9 48 20 0 11 35 20 78 20 44 0 88 13 102 30 16 19 60 30 118 30 52 0 103 8 113 18 10 10 123 23 249 29 393 20 500 34 500 68 0 16 27 60 60 98 33 38 60 82 60 98 0 16 9 29 20 29 11 0 20 31 20 69 0 38 9 74 20 81 11 7 20 34 20 60 0 26 9 53 20 60 11 7 20 30 20 51 0 22 7 39 16 39 9 0 37 43 61 95 61 130 89 176 155 261 93 120 310 324 344 324 27 0 142 60 155 81 6 11 41 19 76 19 36 0 74 8 84 18 10 10 64 23 119 28 55 5 159 21 232 35 114 23 149 22 270 -8 76 -18 181 -33 233 -33 52 0 95 -9 95 -20 0 -11 26 -20 58 -20 32 0 89 -15 125 -33 122 -61 136 -67 167 -67 16 0 30 -8 30 -18 0 -10 23 -23 50 -30 28 -7 50 -22 50 -32 0 -11 13 -20 28 -20 39 0 226 -175 278 -260 23 -38 59 -87 78 -109 20 -21 36 -54 36 -73 0 -19 7 -38 15 -41 27 -12 85 -139 85 -187 0 -26 9 -50 20 -53 10 -4 23 -42 29 -84 5 -43 18 -88 28 -100 20 -24 37 -149 53 -371 6 -75 22 -142 40 -162 16 -18 30 -57 30 -87 0 -40 10 -53 40 -53 22 0 40 -9 40 -20 0 -11 30 -20 66 -20 37 0 84 -13 105 -29 22 -17 68 -30 104 -30 36 -1 65 -10 65 -21 0 -11 22 -20 48 -20 27 0 79 -15 115 -33 121 -61 136 -67 165 -67 34 0 159 -63 169 -85 3 -8 20 -15 38 -15 17 0 61 -22 97 -50 36 -27 72 -50 79 -50 59 0 209 -212 209 -293 0 -164 -185 -347 -350 -347 -26 0 -53 -9 -60 -20 -7 -11 -44 -20 -82 -20 -39 0 -90 -11 -114 -25 -47 -26 -317 -54 -540 -55 -111 0 -137 -7 -146 -35 -6 -19 -19 -51 -29 -70 -11 -19 -19 -50 -20 -70 0 -19 -13 -52 -29 -73 -16 -21 -25 -45 -20 -53 5 -8 -4 -26 -20 -39 -17 -14 -30 -41 -30 -61 0 -20 -7 -39 -15 -42 -8 -4 -40 -41 -71 -82 -69 -92 -155 -103 -205 -26 -52 79 -31 122 57 115 l75 -6 -13 86 c-7 49 -44 134 -85 196 -40 60 -104 170 -143 243 -88 167 -224 326 -338 392 -138 82 -449 71 -522 -17 -67 -81 -280 -142 -280 -80 0 56 -286 94 -402 53 -125 -43 -130 -42 -233 70 -235 255 -574 236 -774 -43 -73 -101 -169 -174 -144 -109 7 19 13 104 13 190 l0 156 79 52 c43 29 154 129 247 223 l167 170 142 0 c96 0 161 -11 200 -33 77 -44 112 -28 143 67 l26 78 123 -7 c68 -4 161 -15 207 -26 46 -10 147 -19 224 -19 196 0 238 -20 254 -120 l13 -82 177 6 c170 6 179 4 211 -44 43 -63 165 -183 305 -300 59 -49 119 -101 133 -115 14 -14 32 -25 39 -25 7 0 45 -24 84 -54 l71 -55 -12 -146 c-7 -81 -22 -164 -33 -185 -44 -82 -25 -163 35 -156 52 6 56 13 68 136 19 192 37 242 110 320 64 67 67 77 67 223 l0 152 -69 33 c-38 18 -75 42 -81 53 -7 10 -30 19 -51 19 -22 0 -39 9 -39 20 0 11 -26 20 -58 20 -32 0 -62 10 -66 22 -4 12 -39 26 -77 30 -38 5 -72 17 -76 28 -3 11 -36 20 -73 20 -37 0 -70 10 -74 22 -4 12 -42 25 -85 29 -43 4 -87 17 -98 28 -12 12 -57 21 -102 22 -45 0 -98 13 -120 30 -21 16 -64 29 -95 29 -34 0 -56 11 -56 27 0 30 35 29 310 -8 130 -18 488 -91 630 -130 53 -14 209 -53 230 -56 11 -2 29 -9 40 -16 11 -7 65 -18 119 -26 107 -16 180 -54 156 -82 -8 -10 1 -6 20 9 32 25 44 17 37 -23 -1 -8 12 -15 29 -15 17 0 26 9 19 20 -7 11 6 20 29 20 22 0 41 -9 41 -20 0 -11 16 -18 35 -17 68 6 107 -3 96 -22 -7 -10 6 -15 28 -11 28 5 41 -3 41 -26 1 -28 4 -29 19 -5 13 21 25 23 44 6 15 -12 36 -25 47 -28 11 -4 18 -14 15 -23 -3 -9 9 -8 28 3 24 13 43 10 62 -9 16 -16 36 -23 47 -17 10 6 18 1 18 -11 0 -12 8 -17 19 -11 25 16 122 -31 109 -52 -5 -9 4 -11 21 -5 17 7 31 2 31 -10 0 -12 23 -22 50 -22 34 0 50 -11 50 -35 1 -27 4 -29 18 -8 14 23 19 23 28 0 8 -19 11 -19 12 -2 5 71 -309 268 -568 357 -55 19 -109 42 -119 51 -10 9 -37 17 -60 17 -23 1 -104 23 -181 50 -77 28 -158 50 -180 51 -22 0 -57 13 -79 30 -21 16 -62 29 -90 30 -28 0 -73 13 -101 29 -27 16 -82 29 -121 29 -39 1 -80 9 -90 19 -10 10 -64 23 -119 29 -243 26 -397 53 -408 70 -7 11 -80 24 -162 30 -216 15 -521 49 -554 62 -16 6 -116 16 -222 22 -107 6 -233 21 -281 33 -106 27 -1550 8 -1685 -22 -48 -11 -142 -29 -208 -39 -256 -42 -472 -115 -486 -165 -5 -21 -2 -20 14 2 16 22 21 23 22 4 0 -19 14 -22 45 -12 25 7 63 16 85 18 22 3 40 7 40 10 0 3 23 7 50 10 28 2 67 12 88 21 30 12 35 9 22 -11 -12 -20 -7 -23 18 -13 20 7 44 13 55 13 11 0 14 9 7 20 -7 11 -3 20 9 20 11 0 21 -7 21 -16 0 -21 250 -5 291 20 51 31 1508 5 1541 -27 43 -43 -26 -55 -329 -55 -140 0 -238 -9 -255 -23 -15 -13 -76 -23 -135 -22 -64 1 -123 -10 -145 -27 -21 -16 -65 -29 -98 -29 -38 -1 -70 -16 -85 -41 -15 -24 -17 -40 -5 -40 29 0 24 -67 -10 -133 -32 -60 -41 -167 -14 -167 66 0 117 -299 60 -356 -13 -13 -23 -69 -22 -124 1 -55 -5 -105 -13 -110 -34 -20 -25 -310 9 -310 26 0 32 16 27 73 -4 46 3 77 18 82 14 5 25 37 25 72 0 116 95 203 218 202 111 -2 116 2 73 63 -45 65 -16 121 103 200 84 55 115 67 133 49 17 -18 15 -28 -9 -41 -151 -86 -84 -380 87 -380 70 0 175 39 175 65 0 8 9 15 20 15 11 0 19 -7 18 -15 -9 -55 5 -64 44 -27 37 34 41 53 29 131 -11 77 -9 89 18 79 17 -7 31 -20 31 -30 0 -10 14 -18 30 -18 17 0 30 -14 30 -30 0 -17 11 -49 25 -71 20 -33 20 -43 -3 -57 -28 -18 -15 -62 19 -62 10 0 43 27 72 60 103 115 352 98 463 -31 32 -38 68 -69 80 -69 11 0 25 -11 30 -25 5 -14 16 -18 26 -9 9 9 5 24 -10 33 -38 23 -13 82 75 178 91 98 106 91 91 -45 -16 -153 176 -320 290 -252 28 17 26 21 -13 32 l-45 13 48 37 c66 52 98 49 81 -7 -12 -37 -1 -32 58 28 76 78 86 196 21 249 -40 32 -34 68 10 68 36 0 182 -147 182 -184 0 -9 14 -16 30 -16 47 0 35 -26 -30 -70 -79 -53 -77 -90 5 -90 204 -1 432 -345 310 -467 -26 -25 -42 -63 -39 -87 7 -44 -89 -271 -119 -283 -10 -3 -17 -20 -17 -36 0 -16 -22 -59 -50 -95 -28 -36 -50 -72 -50 -80 0 -14 -25 -43 -163 -187 -114 -119 -389 -325 -434 -325 -10 0 -24 -14 -30 -30 -7 -17 -28 -30 -48 -30 -21 0 -48 -11 -62 -25 -36 -36 -950 -36 -986 0 -14 14 -38 25 -54 25 -33 0 -523 491 -523 523 0 11 -21 48 -46 83 -26 35 -63 100 -83 144 -20 44 -45 96 -54 115 -9 19 -17 64 -17 101 0 36 -9 75 -19 85 -10 10 -22 73 -25 139 -5 95 -12 118 -36 112 -96 -25 -158 25 -160 128 -1 33 -14 77 -31 99 -17 22 -29 82 -29 141 0 56 -9 111 -20 122 -31 31 -36 373 -5 383 14 5 25 29 25 55 0 25 14 51 30 57 41 16 38 53 -5 52 -102 -1 -168 -121 -136 -244 14 -52 20 -99 15 -105 -19 -18 -121 -11 -134 10 -7 11 -39 20 -73 20 -33 0 -73 13 -90 30 -16 17 -51 30 -77 30 -26 0 -53 9 -60 20 -7 11 -34 20 -60 20 -26 0 -53 9 -60 20 -7 11 -29 20 -49 20 -20 0 -47 14 -61 30 -14 17 -42 30 -62 30 -21 0 -38 9 -38 20 0 11 -22 20 -48 20 -26 0 -53 13 -59 30 -7 16 -24 30 -40 30 -16 0 -57 29 -92 65 l-64 65 7 -85 c3 -47 14 -85 24 -84 10 2 27 -12 36 -30 10 -17 26 -27 36 -21 9 6 23 1 30 -10 7 -11 21 -15 31 -9 11 6 19 2 19 -9 0 -12 38 -41 85 -64 47 -24 90 -51 96 -61 6 -9 35 -19 65 -21 29 -3 57 -16 62 -29 6 -14 28 -19 54 -12 31 8 40 4 30 -12 -8 -13 -8 -23 2 -21 49 8 107 -5 96 -22 -7 -11 1 -15 18 -8 17 6 59 -3 94 -20 35 -18 77 -32 92 -32 16 0 23 -8 17 -18 -6 -10 3 -23 20 -30 21 -8 26 -4 16 13 -9 16 -2 15 20 -3 19 -15 29 -32 24 -38 -6 -6 0 -23 12 -38 13 -15 22 -63 20 -107 -1 -43 4 -79 13 -79 9 0 28 -56 43 -125 33 -152 60 -217 103 -249 43 -32 119 -212 129 -303 4 -40 34 -125 66 -188 33 -63 49 -109 36 -101 -13 8 2 -15 32 -51 30 -37 55 -74 55 -83 0 -25 127 -167 355 -395 l204 -205 709 0 c390 0 712 7 715 15 10 23 214 165 237 165 11 0 20 10 20 23 0 13 5 19 11 13 6 -6 48 26 94 71 46 46 90 81 99 78 8 -2 29 27 47 65 19 38 41 65 50 60 9 -6 21 5 27 25 7 19 43 70 82 114 38 43 70 94 70 114 0 19 16 44 35 55 19 12 28 21 19 21 -8 1 -4 14 10 29 14 15 33 24 41 19 8 -5 15 2 15 17 1 19 6 18 20 -4 17 -26 19 -25 20 5 0 31 35 46 86 37 8 -1 20 11 27 28 6 16 24 30 39 30 15 0 28 10 28 22 0 12 14 17 31 10 17 -6 26 -3 19 8 -12 19 41 140 62 140 6 0 4 -11 -4 -25 -10 -19 -8 -19 10 -3 25 23 38 66 40 133 1 20 19 50 40 68 21 18 34 45 28 60 -6 15 4 32 22 39 17 7 27 20 21 30 -6 10 -1 18 11 18 12 0 17 9 10 20 -7 11 6 20 29 20 22 0 41 9 41 20 0 11 7 19 15 18 8 -2 20 -1 25 1 6 2 69 6 141 9 72 2 140 10 151 17 11 7 38 10 59 6 22 -3 50 3 64 14 13 11 38 14 54 8 16 -6 35 -2 42 9 7 12 25 16 40 10 15 -6 33 -2 40 9 6 10 32 19 58 19 25 0 80 14 121 31 41 17 88 27 103 20 16 -6 24 -2 18 8 -6 10 29 38 79 63 l90 45 0 307 c0 259 -5 306 -30 306 -17 0 -28 11 -25 25 3 14 -6 23 -20 20 -14 -3 -25 5 -25 18 0 13 -6 18 -13 11 -18 -18 -69 26 -56 48 6 10 -3 12 -20 6 -17 -7 -31 -3 -31 7 0 11 -27 31 -60 45 -33 14 -54 33 -48 44 7 10 0 17 -15 14 -38 -5 -157 42 -157 64 0 10 -14 18 -31 18 -18 0 -45 13 -61 29 -16 16 -41 25 -56 19 -15 -6 -31 2 -37 16 -6 15 -40 29 -77 32 -36 3 -71 12 -77 21 -20 30 -81 43 -81 17 -1 -18 -5 -17 -17 2 -9 14 -36 27 -60 29 -24 2 -43 12 -43 21 0 10 -13 13 -29 7 -34 -13 -136 62 -120 89 6 10 2 18 -10 18 -11 0 -20 7 -19 15 8 51 -4 93 -20 68 -11 -18 -17 -9 -18 30 -1 51 -14 141 -25 167 -2 6 -2 30 0 55 2 25 -6 45 -18 45 -11 0 -21 10 -21 21 0 12 8 17 17 11 9 -6 16 2 16 18 0 16 -7 24 -16 18 -16 -10 -26 21 -18 60 1 10 -11 53 -28 95 -17 43 -29 84 -27 92 3 8 -7 35 -20 60 -14 25 -19 45 -12 45 7 0 2 14 -12 30 -14 17 -17 30 -7 30 9 0 8 7 -3 15 -12 8 -43 60 -70 115 -28 55 -58 106 -68 113 -9 7 -10 24 -1 38 8 14 7 20 -4 14 -10 -7 -30 14 -44 46 -15 33 -39 59 -55 59 -15 0 -28 12 -28 26 0 35 -208 228 -236 219 -12 -4 -34 11 -48 34 -14 22 -37 41 -51 41 -14 0 -41 18 -60 40 -18 22 -54 40 -79 40 -26 0 -46 8 -46 17 0 9 -13 16 -28 16 -43 0 -152 50 -152 69 0 33 -1224 21 -1268 -12z m1956 -2435 c48 -28 81 -63 85 -90 10 -64 -11 -57 -124 44 -107 96 -88 118 39 46z m-2204 -185 c19 -43 17 -55 -16 -80 -74 -56 -120 -17 -96 82 16 64 82 63 112 -2z m1563 -110 c47 -44 -5 -50 -57 -7 -58 49 -58 50 -10 36 28 -7 58 -21 67 -29z m-147 -38 c0 -63 -41 -91 -103 -71 -76 24 -30 129 57 129 37 0 46 -11 46 -58z"/> <path d="M2034 3728 c-2 -2 -35 -8 -74 -14 -71 -9 -242 -71 -260 -94 -5 -7 -46 -34 -90 -61 -63 -38 -72 -50 -42 -56 20 -4 44 4 53 18 10 16 40 21 85 14 46 -8 85 -1 114 19 57 40 1164 44 1280 4 39 -13 133 -31 210 -40 77 -9 194 -26 260 -38 66 -12 156 -27 200 -33 44 -7 98 -24 119 -39 22 -16 60 -28 84 -28 25 0 50 -9 57 -20 7 -11 34 -20 60 -20 26 0 72 -13 103 -28 32 -15 114 -56 183 -91 202 -101 197 -78 -32 142 -41 39 -200 117 -239 117 -15 0 -47 11 -71 24 -24 13 -53 26 -64 28 -11 2 -80 18 -152 37 -73 18 -159 36 -190 40 -32 3 -58 8 -58 11 0 6 -106 23 -165 27 -25 2 -45 10 -45 19 0 9 -9 11 -20 4 -11 -7 -20 -3 -20 10 0 15 -11 15 -40 0 -28 -15 -52 -15 -80 0 -23 12 -49 17 -59 11 -10 -6 -40 -3 -67 7 -33 13 -57 12 -74 -4 -20 -19 -22 -18 -10 3 11 21 5 24 -27 14 -24 -8 -43 -5 -43 6 0 12 -35 16 -85 10 -47 -6 -94 -10 -105 -9 -55 4 -692 13 -696 10z"/> <path d="M1960 3221 c-90 -17 144 -40 246 -24 62 10 63 10 14 25 -61 17 -167 17 -260 -1z"/> <path d="M2695 3186 c-54 -5 -91 -17 -84 -27 16 -26 369 -25 369 1 0 11 -25 20 -55 20 -30 0 -73 3 -95 7 -22 4 -83 3 -135 -1z"/> <path d="M3130 3122 c-34 -14 -30 -17 25 -26 84 -12 188 3 174 26 -14 22 -143 21 -199 0z"/> <path d="M3480 3081 c-49 -14 -49 -14 15 -29 68 -16 113 -2 94 29 -13 21 -37 21 -109 0z"/> <path d="M3770 3020 c-7 -12 13 -20 49 -20 33 0 61 9 61 20 0 11 -22 20 -49 20 -27 0 -54 -9 -61 -20z"/> <path d="M4640 2105 c0 -9 23 -49 50 -89 38 -57 50 -99 50 -185 0 -119 15 -136 57 -68 57 91 8 367 -59 326 -8 -5 -21 -1 -28 11 -14 23 -70 27 -70 5z"/> <path d="M2508 1595 c-165 -191 -138 -380 65 -465 212 -88 427 8 427 191 0 171 -67 280 -179 290 -28 3 -101 11 -163 17 -99 10 -116 7 -150 -33z m283 -77 c95 -46 133 -180 70 -247 -127 -135 -420 -3 -340 152 69 134 138 158 270 95z"/> <path d="M2392 810 c-21 -16 -46 -31 -56 -35 -27 -9 40 -129 97 -174 46 -36 54 -37 82 -8 39 38 276 20 326 -25 75 -67 264 96 193 166 -93 93 -548 147 -642 76z"/> <path d="M2380 483 c0 -202 392 -277 548 -105 73 81 -28 71 -130 -13 -70 -57 -253 -12 -363 91 -30 28 -55 41 -55 27z"/> </g> </svg> 